<?xml version="1.0" standalone="no"?>
<!DOCTYPE svg PUBLIC "-//W3C//DTD SVG 20010904//EN"
 "http://www.w3.org/TR/2001/REC-SVG-20010904/DTD/svg10.dtd">
<svg version="1.0" xmlns="http://www.w3.org/2000/svg"
 width="401.000000pt" height="401.000000pt" viewBox="0 0 401.000000 401.000000"
 preserveAspectRatio="xMidYMid meet">
<metadata>
Created by potrace 1.11, written by Peter Selinger 2001-2013
</metadata>
<g transform="translate(0.000000,401.000000) scale(0.100000,-0.100000)"
fill="#000000" stroke="none">
<path d="M1944 4000 c-12 -4 -24 -15 -27 -23 -3 -7 -38 -30 -79 -49 -105 -51
-212 -137 -314 -255 l-46 -52 7 -65 c7 -61 6 -68 -19 -96 -14 -18 -26 -35 -26
-39 0 -4 11 -22 25 -41 31 -42 31 -45 0 -81 -24 -30 -24 -48 0 -79 24 -30 23
-48 -2 -85 l-25 -37 22 -30 c17 -23 20 -38 16 -61 -4 -18 -10 -68 -15 -112 -5
-58 -16 -98 -40 -147 -32 -66 -44 -122 -76 -343 -24 -170 -79 -335 -112 -335
-7 0 -24 -18 -37 -39 -14 -22 -33 -45 -43 -53 -33 -23 -63 -88 -73 -155 -5
-36 -11 -67 -14 -70 -3 -3 -1 -14 5 -24 6 -13 6 -19 0 -19 -7 0 -7 -9 -1 -27
9 -25 9 -26 -4 -10 -13 17 -15 14 -31 -33 -11 -34 -15 -67 -11 -98 3 -26 6
-131 8 -234 l3 -187 -32 21 -33 20 0 -26 c0 -14 -9 -31 -22 -40 -34 -24 -9
-40 60 -41 l57 0 26 -81 c15 -44 32 -89 37 -100 6 -10 24 -46 40 -79 16 -34
45 -83 65 -110 20 -28 51 -70 69 -94 18 -24 43 -51 57 -60 15 -9 44 -33 66
-54 l39 -37 -49 6 c-28 3 -57 8 -65 10 -8 2 -5 -5 8 -16 26 -22 82 -40 125
-40 15 0 41 -7 57 -15 31 -16 106 -65 99 -65 -2 0 -40 11 -84 25 -44 14 -82
25 -84 25 -3 0 8 -14 25 -31 18 -19 35 -28 47 -25 32 8 66 -12 83 -47 23 -47
42 -56 168 -79 61 -10 130 -28 155 -39 l44 -19 77 35 c43 19 88 35 100 35 16
0 20 4 16 15 -3 8 -1 15 4 15 6 0 10 -4 10 -10 0 -6 10 -5 25 2 14 6 25 15 25
20 0 4 13 8 29 8 17 0 33 4 36 10 3 5 1 10 -5 10 -6 0 -10 9 -8 21 2 14 22 30
58 49 30 15 98 49 150 76 111 56 196 115 205 144 3 11 11 20 16 20 6 0 7 5 3
12 -4 6 -3 8 3 5 6 -4 18 2 28 13 10 11 24 20 31 20 7 0 36 26 65 58 29 31 47
48 39 37 -8 -11 -30 -37 -49 -58 -21 -21 -29 -37 -21 -37 11 0 11 -2 -2 -12
-8 -7 -25 -28 -37 -46 -12 -18 -26 -30 -30 -27 -4 2 -20 -9 -36 -25 -15 -15
-33 -26 -40 -24 -6 3 -18 -2 -25 -10 -7 -9 -16 -13 -21 -11 -4 3 -13 -4 -19
-16 -7 -11 -14 -18 -17 -15 -3 3 -26 -11 -52 -31 -55 -44 -71 -59 -52 -48 7 4
16 3 20 -4 18 -29 221 114 221 156 0 8 4 12 9 8 17 -10 107 87 163 175 64 101
90 156 112 230 9 30 24 80 33 110 25 77 24 336 -1 430 -10 36 -23 84 -29 107
-6 24 -15 43 -19 43 -5 0 -8 8 -8 18 0 10 -11 41 -25 68 -14 27 -25 53 -25 57
0 5 -11 23 -23 40 -34 46 -139 250 -171 332 -15 39 -43 108 -61 155 -21 54
-41 134 -55 220 -17 104 -31 156 -62 228 -36 81 -40 101 -40 170 -1 58 -5 86
-21 114 -22 40 -23 35 28 104 6 9 3 22 -13 43 -27 37 -28 63 -2 86 26 23 26
57 0 80 -27 24 -25 48 5 81 30 33 31 45 5 69 -15 13 -20 31 -20 67 0 64 -44
128 -151 218 -43 36 -82 75 -87 87 -6 12 -40 38 -75 58 -36 19 -71 43 -78 51
-32 39 -128 57 -185 34z m-166 -265 c-1 -1 -23 -5 -48 -8 -25 -3 -46 -6 -47
-6 -2 -1 -3 -8 -3 -17 0 -10 5 -14 16 -10 8 3 12 2 9 -4 -3 -6 4 -10 17 -10
18 0 20 -2 8 -10 -10 -6 16 -10 80 -12 84 -3 90 -4 53 -12 -60 -12 -54 -23 14
-25 76 -2 81 -11 7 -12 -63 -1 -78 -2 -115 -15 -24 -7 -24 -7 6 -20 l30 -12
-50 -7 c-28 -3 -74 -11 -103 -16 -29 -6 -65 -9 -80 -8 -15 2 -32 0 -39 -4 -14
-9 -23 91 -8 103 6 4 25 10 43 14 82 16 90 19 95 37 3 10 1 19 -4 19 -14 0
-11 30 4 32 6 0 17 2 22 2 6 1 20 7 33 14 12 7 22 9 22 5 0 -4 5 -2 12 5 9 9
14 9 21 -4 5 -8 7 -17 5 -19z m544 -103 c13 -13 -21 -45 -40 -37 -8 3 -47 10
-86 16 -121 19 -127 23 -41 30 94 7 154 4 167 -9z m88 -32 c0 -5 -4 -10 -10
-10 -5 0 -10 5 -10 10 0 6 5 10 10 10 6 0 10 -4 10 -10z m-557 -100 c121 0
135 -5 42 -14 -164 -16 -190 -35 -53 -38 71 -1 79 -3 33 -5 -33 -2 -64 -8 -69
-14 -6 -5 -24 -9 -40 -10 l-31 -1 35 -13 c19 -7 31 -14 25 -14 -5 -1 -64 -8
-130 -16 -65 -8 -125 -15 -132 -15 -9 0 -13 17 -13 54 l0 53 53 21 c39 16 67
20 111 16 32 -2 109 -4 169 -4z m185 -7 c-10 -2 -26 -2 -35 0 -10 3 -2 5 17 5
19 0 27 -2 18 -5z m331 -11 c3 -5 20 -12 36 -15 20 -3 14 -4 -20 -5 -36 -1
-46 1 -35 8 11 7 -1 9 -40 8 -30 0 -45 -3 -34 -5 16 -3 20 -9 17 -24 -3 -10 0
-19 6 -19 6 0 11 -5 11 -10 0 -10 -32 -6 -79 12 -23 8 -23 9 -6 22 16 12 11
14 -46 22 l-64 8 75 7 c96 8 170 5 179 -9z m51 -67 c-7 -8 -16 -15 -20 -15 -3
0 -7 7 -7 15 0 8 9 15 20 15 16 0 17 -3 7 -15z m-675 -75 c-13 -6 20 -9 93 -9
61 -1 112 -5 112 -10 0 -9 -82 -21 -152 -21 -27 0 -48 -4 -48 -10 0 -6 33 -10
78 -11 42 -1 88 -5 102 -9 15 -5 -5 -6 -52 -3 -62 5 -80 3 -93 -10 -9 -9 -23
-13 -32 -10 -11 4 -14 3 -9 -5 4 -7 19 -12 34 -13 l27 -1 -29 -8 c-16 -5 -32
-13 -35 -18 -8 -12 -174 -24 -166 -12 3 5 -8 5 -27 -1 -18 -5 -34 -9 -35 -9
-7 0 -2 116 5 127 4 7 44 18 87 24 44 6 82 13 84 15 2 2 20 4 40 3 29 0 32 -2
16 -9z m318 -27 c-7 -2 -19 -2 -25 0 -7 3 -2 5 12 5 14 0 19 -2 13 -5z m342
-11 c35 -9 28 -10 -57 -11 -53 0 -104 2 -114 6 -16 6 -16 7 2 14 23 10 113 5
169 -9z m-120 -32 c-3 -5 2 -10 11 -10 14 0 15 -3 6 -12 -9 -9 -21 -8 -51 2
-47 15 -45 30 5 30 21 0 33 -4 29 -10z m-357 -37 c-10 -2 -26 -2 -35 0 -10 3
-2 5 17 5 19 0 27 -2 18 -5z m-74 -74 c120 0 103 -13 -31 -24 -51 -4 -93 -11
-93 -16 0 -5 37 -9 83 -10 45 0 91 -4 102 -9 13 -6 -4 -7 -46 -3 -44 4 -69 2
-73 -6 -4 -6 -19 -11 -34 -12 -15 0 -21 -3 -14 -6 6 -2 10 -9 6 -14 -3 -5 1
-10 8 -11 7 -1 -27 -4 -77 -8 -49 -3 -94 -2 -99 2 -6 4 -21 8 -34 8 -21 0 -22
-2 -12 -15 10 -13 9 -15 -8 -15 -17 0 -22 8 -27 44 -11 73 -7 79 65 92 36 7
92 10 124 8 32 -2 104 -4 160 -5z m502 -18 c5 -6 27 -12 49 -14 22 -2 7 -3
-33 -2 -76 2 -98 -8 -67 -32 18 -12 17 -13 -7 -13 -66 0 -113 22 -70 33 9 3 1
6 -18 7 l-35 2 45 13 c54 16 122 19 136 6z m64 -61 c0 -5 -2 -10 -4 -10 -3 0
-8 5 -11 10 -3 6 -1 10 4 10 6 0 11 -4 11 -10z m-665 -75 l-40 -13 40 -1 c30
-1 36 -4 27 -13 -20 -20 -14 -36 16 -41 19 -3 14 -4 -15 -6 -24 0 -43 -5 -43
-11 0 -5 5 -10 10 -10 15 0 7 -24 -10 -31 -11 -4 -7 -10 15 -22 29 -16 28 -17
-55 -11 -47 4 -87 6 -90 6 -85 -1 -100 -3 -94 -13 5 -8 34 -10 93 -6 l86 5
-100 -18 c-55 -9 -103 -15 -107 -11 -8 7 17 160 29 172 18 18 122 38 198 38
80 -1 80 -1 40 -14z m88 8 c-7 -2 -21 -2 -30 0 -10 3 -4 5 12 5 17 0 24 -2 18
-5z m113 -50 c-1 -26 -4 -28 -49 -28 -63 -1 -75 7 -48 34 14 14 34 21 60 21
35 0 38 -2 37 -27z m377 -15 c-1 -18 -2 -36 -2 -40 -1 -5 -23 -8 -51 -8 -35 0
-48 4 -46 13 3 6 7 24 10 40 6 24 11 27 49 27 41 0 42 -1 40 -32z m121 -13
c-4 -8 -10 -13 -14 -10 -4 3 -7 -3 -6 -12 0 -9 -5 -18 -13 -21 -11 -4 -12 2
-7 24 8 30 24 46 38 38 4 -3 5 -11 2 -19z m-519 -40 c0 -5 -17 -11 -37 -13
-30 -3 -38 0 -38 13 0 13 8 16 38 13 20 -2 37 -7 37 -13z m-185 -145 c23 -23
22 -18 25 -107 1 -38 8 -102 14 -143 7 -41 14 -113 18 -160 l6 -85 -49 -21
-49 -21 28 -12 c16 -6 39 -11 53 -11 25 0 25 -1 19 -57 -11 -94 -9 -122 7
-140 19 -21 17 -61 -7 -153 -17 -69 -34 -91 -64 -83 -10 3 -22 0 -25 -6 -5 -7
6 -11 30 -11 46 0 41 -8 -7 -11 -32 -3 -35 -5 -31 -31 5 -32 9 -34 39 -13 21
15 21 15 12 -22 -17 -65 -17 -65 -38 -54 -13 7 -32 7 -61 -2 -41 -12 -45 -16
-70 -79 -15 -37 -25 -70 -22 -73 3 -3 27 -2 54 1 l48 7 0 -68 c0 -47 -8 -91
-25 -142 l-26 -74 38 -52 c66 -92 84 -105 148 -109 50 -3 59 -6 68 -28 9 -22
11 -23 15 -6 3 15 10 17 40 12 21 -3 68 -6 105 -6 l68 0 -15 -22 c-24 -34 -19
-46 19 -54 41 -7 105 14 83 27 -9 6 -4 9 15 9 15 0 27 2 27 4 0 2 3 11 6 20 5
13 -2 16 -37 18 -33 1 -27 3 26 8 39 3 80 3 91 -1 31 -11 37 0 11 23 -12 11
-17 17 -10 14 7 -4 10 1 7 11 -3 12 11 31 38 54 42 35 45 35 105 29 54 -5 62
-3 66 12 4 13 -1 18 -15 18 -31 0 -58 19 -58 41 0 23 -32 39 -38 19 -3 -7 -20
29 -39 81 -33 92 -73 210 -73 215 0 1 10 4 22 6 35 5 33 33 -5 71 -44 43 -70
89 -49 86 35 -6 46 32 15 50 -14 8 -9 10 25 11 25 0 41 -4 37 -10 -3 -5 3 -18
15 -30 21 -21 50 -27 50 -9 0 5 5 7 10 4 6 -4 23 1 37 10 24 16 27 16 35 1 5
-9 18 -16 30 -16 21 0 21 0 2 23 l-19 22 22 -19 c20 -17 21 -20 8 -39 -20 -28
-19 -37 4 -37 35 0 51 12 52 39 0 14 4 35 9 46 6 13 7 5 3 -25 -6 -51 -24 -70
-66 -70 -25 0 -28 3 -24 23 4 15 -1 27 -16 38 -20 15 -24 14 -52 -2 l-29 -18
37 -16 c21 -8 43 -28 52 -44 21 -41 27 -43 70 -25 20 8 39 13 41 11 2 -2 -3
-21 -12 -42 -13 -32 -14 -45 -3 -82 17 -64 33 -67 26 -6 -5 48 -4 52 18 57 13
3 36 11 50 16 l26 10 -25 42 c-13 24 -29 62 -36 86 -6 24 -20 52 -31 63 -10
10 -19 25 -19 32 0 7 -13 26 -30 42 -16 16 -30 24 -30 17 0 -6 5 -14 10 -17
17 -11 11 -25 -10 -25 -17 0 -19 -3 -10 -19 5 -11 10 -26 9 -33 0 -7 -5 -2
-10 11 -7 18 -12 21 -23 12 -10 -9 -16 -9 -21 -1 -4 6 -1 9 7 8 7 -2 12 5 12
15 -1 12 6 17 23 17 l25 0 -28 38 c-23 30 -24 33 -5 17 17 -15 22 -16 20 -5
-1 8 2 24 6 34 7 16 -1 29 -43 66 -32 29 -52 55 -52 68 0 15 -9 24 -32 31 -30
10 -29 10 12 5 31 -4 66 -20 110 -50 56 -38 66 -42 68 -27 6 31 19 36 46 18
26 -17 25 -15 -9 36 -19 29 -35 58 -35 64 0 10 40 40 44 33 2 -2 8 -18 15 -35
8 -18 17 -33 22 -33 5 0 9 -6 9 -14 0 -7 6 -19 14 -25 22 -19 94 -165 102
-208 4 -21 16 -53 26 -72 10 -18 17 -36 14 -39 -3 -3 -1 -11 5 -19 19 -23 -2
-14 -22 10 -28 31 -69 118 -69 146 0 18 -4 22 -17 15 -10 -4 -30 -8 -45 -8
-28 -1 -36 -10 -18 -21 5 -3 18 -25 28 -48 11 -23 29 -51 41 -61 28 -25 27
-32 -9 -40 -21 -4 -30 -11 -30 -25 0 -20 2 -19 36 4 41 28 64 32 64 11 0 -8 8
-17 18 -19 13 -4 11 -5 -5 -6 -14 -1 -23 5 -23 14 0 19 -4 19 -39 0 -40 -20
-45 -49 -14 -86 14 -16 28 -27 31 -24 3 3 -7 19 -23 35 -16 17 -24 30 -18 30
6 0 30 -26 52 -57 l41 -58 0 43 c0 23 2 42 4 42 2 0 13 3 23 6 17 5 17 5 1 -6
-12 -7 -18 -24 -18 -50 0 -45 -11 -51 -34 -18 l-16 22 0 -29 c0 -47 11 -75 29
-76 14 -1 13 -2 -1 -6 -24 -6 -23 -18 5 -56 42 -58 48 -83 26 -103 -20 -18
-26 -44 -10 -44 6 0 13 5 16 10 12 19 23 10 30 -26 6 -33 8 -35 33 -29 37 9
38 10 8 45 -31 37 -30 34 -10 93 14 41 18 45 42 42 15 -1 29 -3 31 -4 2 0 -2
-8 -9 -16 -7 -8 -8 -15 -3 -15 15 0 34 -70 20 -71 -8 0 -8 -2 1 -6 6 -2 12
-21 12 -40 0 -47 -30 -225 -40 -238 -5 -5 -11 -27 -15 -47 -8 -42 -25 -51 -25
-14 0 13 -7 30 -16 37 -14 11 -16 10 -12 -11 2 -16 -2 -25 -9 -24 -7 1 -22 2
-33 3 -30 2 -24 25 19 68 43 42 71 117 52 136 -15 15 -139 -113 -147 -151 -4
-21 -15 -32 -39 -41 -38 -13 -108 -85 -132 -135 -9 -19 -21 -32 -28 -30 -20 8
-47 -25 -39 -48 4 -14 -1 -24 -16 -35 -19 -13 -21 -21 -15 -59 6 -40 4 -46
-29 -79 -40 -40 -61 -44 -76 -15 -12 22 -54 27 -66 9 -4 -7 -22 -9 -45 -6 -29
4 -36 2 -32 -9 3 -8 0 -14 -7 -14 -6 0 -8 4 -5 10 3 5 -6 15 -20 22 -21 9 -33
9 -58 -1 -37 -14 -88 -21 -81 -10 2 4 -10 10 -28 12 -18 2 -4 4 32 5 151 3
148 3 155 38 3 18 12 37 20 44 23 19 18 40 -10 40 -15 0 -31 -9 -41 -25 -24
-36 -72 -62 -147 -80 -60 -14 -73 -14 -126 0 -72 18 -71 18 -71 0 0 -9 10 -20
23 -25 13 -5 16 -9 7 -9 -20 -1 -40 18 -40 38 0 22 -45 42 -60 27 -8 -8 -11
-8 -8 2 2 8 -13 20 -33 28 -31 13 -39 13 -72 -1 -37 -15 -44 -48 -8 -38 12 3
26 -5 39 -21 11 -14 25 -26 32 -26 6 0 8 -6 4 -12 -4 -7 -4 -10 1 -6 4 4 26
-6 48 -22 53 -39 80 -40 46 -2 -13 15 9 -4 49 -43 61 -59 70 -72 57 -81 -11
-8 -36 -8 -96 4 -62 11 -83 12 -89 3 -4 -8 -17 -10 -36 -5 -27 7 -28 6 -15
-12 7 -10 2 -6 -13 9 -14 15 -26 24 -26 20 0 -4 -7 1 -15 11 -8 11 -15 16 -15
12 0 -5 -10 -2 -22 6 -13 8 -32 14 -42 12 -11 -1 -32 6 -48 18 -23 16 -32 17
-43 8 -11 -9 -15 -9 -15 -1 0 6 -12 17 -27 24 -34 15 -147 129 -180 180 -14
22 -28 35 -35 31 -7 -4 -8 -3 -4 4 4 7 3 12 -2 12 -5 0 -23 20 -41 45 -18 25
-29 45 -25 45 4 0 0 8 -8 18 -8 9 -26 42 -40 73 l-25 55 33 11 c41 12 43 9 8
-10 -23 -12 -24 -15 -10 -26 9 -8 36 -16 61 -19 l45 -5 -15 37 c-10 25 -12 42
-6 54 6 11 5 28 -5 50 -13 31 -12 37 11 82 21 42 23 53 13 75 -8 18 -14 22
-20 13 -4 -7 -7 18 -6 57 1 65 1 67 8 25 5 -35 7 -38 8 -15 1 17 11 60 21 97
17 60 18 67 3 73 -14 5 -31 -9 -32 -27 0 -4 -8 -5 -17 -2 -10 3 -7 -2 7 -10
19 -11 21 -15 8 -16 -22 0 -33 19 -29 52 1 14 -2 29 -7 32 -17 10 -62 -53 -63
-87 0 -26 -2 -28 -8 -12 -7 16 -11 10 -28 -35 -11 -30 -21 -75 -22 -100 0 -25
-7 -65 -14 -89 l-13 -43 -12 53 c-19 84 -5 323 20 340 5 3 11 19 13 35 13 79
55 184 75 184 5 0 31 43 58 96 35 66 45 94 33 90 -9 -3 -5 2 9 12 39 27 70 63
89 104 9 21 20 35 24 32 3 -4 11 4 16 17 5 13 19 33 31 44 12 11 26 27 31 36
7 14 3 16 -37 11 -40 -4 -44 -3 -38 14 4 11 10 24 14 29 3 6 7 27 9 48 1 21 7
52 12 70 5 17 9 45 9 60 0 16 7 35 15 44 12 12 13 18 4 29 -27 32 -7 164 30
202 15 15 33 36 41 47 16 21 61 40 125 51 22 3 47 10 55 15 22 12 28 11 50
-11z m194 -65 c6 -68 9 -86 22 -170 3 -22 5 -57 5 -77 -2 -36 0 -38 29 -38 26
0 30 4 31 28 2 59 1 111 -4 221 -3 64 -2 110 3 105 5 -5 11 -90 14 -189 3 -99
8 -190 12 -201 9 -34 -11 -62 -42 -58 -35 3 -48 18 -50 57 -2 42 -20 203 -33
292 -13 89 -14 122 -2 110 5 -6 12 -41 15 -80z m196 51 c9 -26 12 -236 4 -294
-5 -35 -9 -40 -20 -31 -8 6 -14 26 -14 45 0 18 -5 56 -11 85 -15 71 -3 216 18
216 8 0 18 -10 23 -21z m275 9 c48 -8 82 -20 117 -41 40 -25 50 -51 53 -144 1
-30 5 -62 8 -70 3 -8 8 -33 10 -55 7 -61 29 -169 36 -175 17 -14 41 -72 40
-97 -1 -23 -2 -24 -6 -5 -2 12 -9 22 -15 22 -6 0 -26 11 -44 25 -39 30 -44 31
-37 5 6 -22 9 -21 -105 -46 -49 -10 -102 -29 -128 -46 -25 -15 -51 -28 -59
-28 -8 0 -15 -7 -15 -15 0 -18 5 -18 31 -4 16 8 25 7 37 -4 9 -9 31 -17 47
-20 l30 -4 -30 -1 c-16 -1 -38 5 -49 13 -16 12 -21 12 -41 -1 -20 -13 -23 -13
-29 1 -3 9 -9 14 -14 11 -4 -2 -9 5 -9 17 -2 18 0 19 8 7 9 -13 10 -13 6 0 -2
8 -11 14 -21 12 -14 -3 -16 10 -16 99 l0 102 44 -5 c24 -3 58 -12 75 -21 17
-8 31 -12 31 -7 0 5 3 15 6 24 4 12 0 16 -15 16 -12 0 -35 7 -52 15 -19 10
-41 14 -62 10 l-32 -6 2 153 c1 84 4 164 7 178 3 14 8 42 11 63 l6 39 77 -7
c42 -4 86 -8 97 -10z m-529 -51 c1 -27 5 -89 8 -139 4 -61 3 -84 -4 -70 -7 15
-9 4 -9 -45 1 -104 -8 -124 -26 -60 -5 19 -4 21 4 10 9 -12 11 -11 11 7 0 12
-4 25 -10 28 -5 3 -10 14 -9 23 0 14 2 13 9 -3 8 -18 9 -17 9 8 1 24 -2 27
-19 22 -24 -8 -23 -13 -24 146 l-1 126 30 -2 c28 -2 29 -5 31 -51z m709 -575
c8 -24 -8 -39 -40 -38 -16 1 -15 2 5 8 28 8 34 34 9 39 -45 8 -94 -40 -51 -51
13 -4 11 -5 -5 -6 -36 -2 -32 44 5 57 45 17 70 14 77 -9z m-1207 -40 c-3 -20
-5 -19 -9 9 -3 20 -2 29 4 23 5 -5 7 -19 5 -32z m904 -60 c3 -9 10 -9 26 0 20
11 22 9 22 -13 0 -15 8 -30 20 -36 11 -6 20 -15 20 -21 0 -5 -9 -1 -21 9 -13
13 -36 20 -66 20 -61 2 -69 12 -10 12 26 0 47 4 47 9 0 5 -8 7 -19 4 -10 -3
-22 0 -26 7 -5 8 -11 7 -23 -2 -15 -12 -16 -11 -3 5 16 20 28 22 33 6z m-987
-57 l-39 -37 35 41 c19 22 36 39 39 37 2 -2 -13 -20 -35 -41z m796 -79 c17
-69 25 -83 41 -83 18 0 18 2 -6 31 -14 17 -26 41 -26 54 0 39 18 75 37 74 17
-1 17 -2 1 -6 -25 -6 -35 -70 -16 -102 8 -14 20 -25 27 -23 7 1 10 -1 7 -6 -7
-12 40 -53 50 -44 4 4 4 1 0 -6 -5 -8 -1 -21 9 -32 9 -10 25 -41 36 -69 l19
-51 -73 5 c-39 3 -84 8 -98 10 -20 3 -29 -2 -36 -18 -7 -16 -12 19 -17 130 -5
101 -3 159 4 172 5 11 10 30 11 43 1 28 2 24 30 -79z m-128 39 c5 -29 10 -353
8 -448 -1 -34 -38 -38 -50 -5 -5 14 -10 21 -10 14 -1 -7 -13 -1 -27 12 -14 13
-24 30 -21 37 4 8 6 7 6 -4 1 -10 3 -18 5 -18 2 0 12 -3 21 -6 16 -6 16 -5 2
23 -21 40 -43 58 -53 42 -4 -7 -3 -9 4 -5 6 3 13 2 16 -3 8 -12 -13 -8 -41 7
-33 18 -38 -12 -9 -60 15 -25 26 -35 29 -26 3 7 6 3 6 -10 1 -31 -12 -21 -43
33 -22 36 -25 49 -16 65 8 15 15 18 27 11 13 -7 20 -1 35 27 20 41 16 72 -11
72 -17 0 -71 -89 -71 -118 0 -6 -4 -12 -10 -12 -14 0 -13 4 20 65 32 58 40 92
15 59 -8 -10 -14 -14 -15 -9 0 40 69 38 95 -2 15 -23 15 -26 -2 -38 -24 -18
-14 -26 23 -16 25 6 29 12 26 37 -2 16 -13 38 -23 50 -11 12 -17 28 -14 37 5
11 -3 19 -29 28 -34 12 -36 15 -30 48 4 20 15 58 25 86 14 41 23 52 50 61 45
15 56 10 62 -34z m262 19 c3 -5 2 -12 -3 -15 -5 -3 -9 1 -9 9 0 17 3 19 12 6z
m275 -24 c24 -12 46 -28 48 -36 3 -10 0 -11 -9 -5 -8 5 -22 7 -33 5 -11 -1
-16 2 -11 8 3 6 11 8 17 5 7 -4 8 -2 4 4 -4 6 -14 8 -23 5 -10 -4 -14 -2 -10
4 4 7 -15 17 -51 27 -43 12 -48 14 -17 10 22 -3 60 -15 85 -27z m-209 -20 c-8
-8 -6 -16 7 -31 17 -21 17 -21 -4 -3 -19 16 -30 52 -12 41 4 -3 8 3 9 13 0 12
2 13 6 5 3 -8 0 -19 -6 -25z m119 -8 c0 -6 7 -6 19 1 11 5 26 10 33 10 7 -1
-2 -7 -21 -15 -40 -18 -41 -18 -41 -4 0 7 -8 18 -17 26 -16 13 -16 13 5 3 12
-6 22 -15 22 -21z m-89 -16 c13 -16 12 -17 -3 -4 -10 7 -18 15 -18 17 0 8 8 3
21 -13z m136 -15 c-3 -8 -6 -5 -6 6 -1 11 2 17 5 13 3 -3 4 -12 1 -19z m-88
-37 c-2 -6 -10 2 -17 17 -11 25 -11 25 4 10 9 -9 15 -21 13 -27z m78 -3 c-3
-8 -6 -5 -6 6 -1 11 2 17 5 13 3 -3 4 -12 1 -19z m-47 -71 l-24 -22 18 22 c16
19 17 25 5 40 -12 17 -12 17 6 0 19 -17 19 -17 -5 -40z m85 25 c-3 -3 3 -15
12 -26 18 -21 18 -21 -4 -3 -17 15 -26 17 -45 7 -22 -11 -22 -10 -4 4 11 9 24
16 29 16 5 0 3 8 -4 18 -13 15 -12 16 4 3 9 -8 15 -16 12 -19z m-68 -54 c-3
-8 -6 -5 -6 6 -1 11 2 17 5 13 3 -3 4 -12 1 -19z m503 -87 c0 -5 5 -22 12 -38
6 -15 12 -32 13 -38 1 -5 3 -12 4 -15 2 -3 5 -18 7 -35 8 -59 15 -75 29 -75 8
0 15 -4 15 -10 0 -5 -5 -10 -12 -10 -6 0 -3 -7 8 -15 11 -8 14 -15 7 -15 -22
0 -53 39 -53 66 0 23 -1 24 -16 10 -19 -19 -36 -20 -52 -4 -10 10 -15 10 -22
-2 -8 -13 -10 -12 -10 3 0 9 7 17 15 17 11 0 15 12 15 45 0 39 3 45 21 45 18
0 20 4 15 28 -4 15 -14 33 -23 40 -15 11 -15 12 5 12 12 0 22 -4 22 -9z m-735
-58 c7 3 17 -5 23 -19 10 -20 16 -23 42 -18 21 5 31 2 34 -7 29 -98 101 -307
108 -317 20 -24 -4 -26 -62 -6 l-58 21 -11 -21 c-11 -21 -11 -21 -6 0 4 13 0
24 -8 27 -8 3 -29 31 -46 62 -27 48 -30 59 -19 73 20 26 31 32 63 32 28 0 26
2 -28 36 -31 19 -57 40 -57 45 0 5 -15 10 -32 11 l-33 1 33 4 c35 5 40 14 16
34 -8 7 -13 21 -11 31 5 16 -4 23 -26 19 -5 -1 -6 3 -2 9 4 6 17 4 36 -6 17
-8 37 -13 44 -11z m-456 8 c8 -5 -4 -7 -32 -4 -40 5 -46 3 -45 -13 0 -11 -3
-34 -7 -53 -8 -32 -7 -33 16 -26 47 15 54 15 24 1 -16 -8 -38 -15 -47 -16 -14
0 -15 5 -6 36 5 20 8 45 5 55 -3 10 0 20 7 23 19 8 70 6 85 -3z m366 -21 c-3
-5 -14 -10 -23 -9 -14 0 -13 2 3 9 27 11 27 11 20 0z m-19 -58 c-10 -2 -22 0
-28 6 -6 6 0 7 19 4 21 -5 23 -7 9 -10z m-316 -18 c0 -8 -8 -14 -17 -13 -10 0
-13 3 -6 5 7 3 9 12 6 21 -4 11 -2 14 5 9 7 -4 12 -14 12 -22z m297 -16 c-3
-8 -6 -5 -6 6 -1 11 2 17 5 13 3 -3 4 -12 1 -19z m-354 -5 c-7 -2 -14 -17 -14
-31 -1 -18 -3 -21 -6 -9 -6 24 3 47 19 46 10 0 10 -2 1 -6z m127 -58 l0 -44
33 4 c28 4 29 4 7 -4 -46 -16 -50 -13 -50 34 l0 45 -55 -31 c-30 -17 -55 -29
-55 -26 0 6 102 66 113 67 4 0 7 -20 7 -45z m-560 -40 c0 -2 -9 -9 -20 -15
-12 -6 -20 -7 -20 -1 0 5 8 12 18 14 9 3 18 5 20 6 1 0 2 -1 2 -4z m885 -39
c6 2 19 -9 28 -26 16 -26 16 -30 3 -30 -9 0 -23 11 -32 26 -19 27 -30 22 -36
-16 -2 -17 8 -35 37 -63 22 -22 32 -34 23 -27 -17 11 -18 8 -18 -39 0 -38 5
-56 20 -71 11 -11 16 -20 11 -20 -5 0 -14 7 -21 15 -11 13 -15 11 -33 -13 -12
-15 -26 -30 -32 -34 -13 -10 -127 -9 -180 0 l-40 8 3 44 c2 25 8 63 13 84 l11
39 21 -38 c22 -38 48 -53 123 -69 26 -6 32 -3 41 16 8 19 6 24 -11 33 -23 12
-54 60 -44 70 3 4 27 7 52 7 l46 0 -50 39 c-43 34 -70 66 -70 83 0 3 20 -16
45 -42 43 -46 45 -46 45 -20 0 15 5 30 11 33 7 5 4 14 -8 28 l-18 22 25 -21
c14 -12 30 -20 35 -18z m-1025 -23 c-11 -17 -11 -17 -6 0 3 10 6 24 7 30 0 9
2 9 5 0 3 -7 0 -20 -6 -30z m665 -32 c6 -29 39 -51 77 -51 18 0 20 -4 14 -45
-3 -25 -9 -65 -12 -90 -6 -40 -9 -44 -33 -44 -65 3 -115 30 -153 85 -38 53
-44 83 -28 134 l8 25 1 -26 c1 -24 17 -39 40 -39 5 0 21 18 36 40 15 22 31 40
36 40 4 0 10 -13 14 -29z m432 -87 c-3 -3 -12 -4 -19 -1 -8 3 -5 6 6 6 11 1
17 -2 13 -5z m39 -67 l3 -32 -19 31 c-12 19 -18 39 -14 49 6 16 8 16 16 1 5
-10 11 -31 14 -49z m57 47 l47 -16 -31 -25 c-16 -14 -31 -24 -33 -22 -17 24
-44 79 -37 79 4 0 28 -7 54 -16z m-1167 -21 c-4 -9 -1 -20 6 -25 9 -5 10 -8 1
-8 -6 0 -14 4 -17 9 -6 10 3 41 11 41 3 0 2 -8 -1 -17z m49 -43 c3 -6 -1 -7
-9 -4 -18 7 -21 14 -7 14 6 0 13 -4 16 -10z m-118 -42 c-3 -7 -5 -2 -5 12 0
14 2 19 5 13 2 -7 2 -19 0 -25z m1203 -23 c-14 -17 -36 -20 -44 -6 -4 5 3 7
14 4 13 -3 22 1 26 11 4 9 9 15 12 12 3 -3 -1 -12 -8 -21z m-1187 -15 c3 -11
1 -18 -4 -14 -5 3 -9 12 -9 20 0 20 7 17 13 -6z m114 -47 c-3 -10 -5 -2 -5 17
0 19 2 27 5 18 2 -10 2 -26 0 -35z m1640 -29 c-3 -3 -12 -4 -19 -1 -8 3 -5 6
6 6 11 1 17 -2 13 -5z m-690 -10 c-3 -3 -12 -4 -19 -1 -8 3 -5 6 6 6 11 1 17
-2 13 -5z m-40 -10 c-3 -3 -12 -4 -19 -1 -8 3 -5 6 6 6 11 1 17 -2 13 -5z
m698 -50 c-22 -19 -47 -33 -55 -30 -8 2 -21 5 -29 7 -10 3 -17 -7 -22 -26 -6
-28 -7 -28 -8 -5 -1 37 16 51 45 38 19 -9 29 -6 61 20 52 42 58 40 8 -4z m122
-31 c-3 -10 -5 -2 -5 17 0 19 2 27 5 18 2 -10 2 -26 0 -35z m-72 1 c-14 -20
-25 -41 -25 -47 0 -6 -3 -8 -6 -5 -7 7 12 45 34 71 25 28 23 20 -3 -19z m-159
-123 c-11 -20 -25 -30 -48 -34 -18 -3 -43 -7 -54 -10 -18 -5 -21 -2 -16 16 4
18 6 18 11 4 4 -12 10 -14 21 -7 8 5 27 10 41 10 15 0 30 7 33 16 4 12 2 15
-9 10 -8 -3 -15 -1 -15 4 0 7 17 15 43 19 4 0 1 -12 -7 -28z m99 9 c-3 -5 -14
-10 -23 -9 -14 0 -13 2 3 9 27 11 27 11 20 0z m-85 -42 c-14 -11 -24 -23 -23
-27 1 -3 -13 -7 -29 -7 l-31 -1 39 19 c21 10 43 23 48 28 6 6 12 10 16 10 3
-1 -6 -10 -20 -22z m27 -30 c-3 -8 -6 -5 -6 6 -1 11 2 17 5 13 3 -3 4 -12 1
-19z m-134 -15 c-7 -2 -19 -2 -25 0 -7 3 -2 5 12 5 14 0 19 -2 13 -5z m-49
-29 c10 -37 2 -39 -11 -4 -6 17 -8 30 -3 30 4 0 11 -12 14 -26z m50 -27 c-22
-23 -40 -39 -42 -35 -3 6 67 77 77 78 2 0 -14 -19 -35 -43z m-813 -20 c-6 -8
-7 -18 -3 -22 4 -5 1 -5 -6 -1 -10 6 -10 11 -1 22 6 8 14 14 16 14 3 0 0 -6
-6 -13z m749 -41 c0 -2 -8 -10 -17 -17 -16 -13 -17 -12 -4 4 13 16 21 21 21
13z m-151 -51 c0 -5 -4 -3 -9 5 -5 8 -9 22 -9 30 0 16 17 -16 18 -35z m-294
25 c3 -6 -1 -7 -9 -4 -18 7 -21 14 -7 14 6 0 13 -4 16 -10z m82 -12 c-3 -8 -6
-5 -6 6 -1 11 2 17 5 13 3 -3 4 -12 1 -19z m80 -30 c-3 -8 -6 -5 -6 6 -1 11 2
17 5 13 3 -3 4 -12 1 -19z m110 -35 c-3 -10 -5 -4 -5 12 0 17 2 24 5 18 2 -7
2 -21 0 -30z m-58 5 c-1 -19 -2 -19 -6 -5 -5 18 -5 18 -26 0 l-22 -18 19 23
c11 12 23 22 28 22 4 0 7 -10 7 -22z m-116 -8 c3 -11 1 -20 -4 -20 -5 0 -9 9
-9 20 0 11 2 20 4 20 2 0 6 -9 9 -20z m138 -37 c13 -16 12 -17 -3 -4 -10 7
-18 15 -18 17 0 8 8 3 21 -13z m-508 -50 c-7 -2 -19 -2 -25 0 -7 3 -2 5 12 5
14 0 19 -2 13 -5z m427 -26 c0 -2 -12 -14 -27 -28 l-28 -24 24 28 c23 25 31
32 31 24z m-441 -21 c-10 -9 -69 -36 -69 -32 0 7 52 35 64 36 5 0 7 -2 5 -4z
m188 -40 c-5 -11 4 -16 36 -19 l42 -4 -47 -1 c-27 -1 -48 0 -48 2 0 10 13 36
17 36 3 0 3 -7 0 -14z m117 -2 c3 -8 2 -12 -4 -9 -6 3 -10 10 -10 16 0 14 7
11 14 -7z m-391 -9 c-3 -9 -8 -14 -10 -11 -3 3 -2 9 2 15 9 16 15 13 8 -4z
m65 -22 c-10 -2 -26 -2 -35 0 -10 3 -2 5 17 5 19 0 27 -2 18 -5z m259 -29 c-3
-3 -12 -4 -19 -1 -8 3 -5 6 6 6 11 1 17 -2 13 -5z m-59 -11 c-16 -2 -40 -2
-55 0 -16 2 -3 4 27 4 30 0 43 -2 28 -4z"/>
<path d="M2490 2010 c0 -11 4 -20 8 -20 5 0 29 -19 53 -41 26 -25 74 -54 116
-71 95 -39 139 -26 98 28 -8 10 -14 24 -15 29 0 6 10 -5 21 -22 12 -18 23 -33
26 -33 3 0 -4 15 -14 33 -11 17 -22 30 -25 27 -3 -3 -14 2 -24 11 -11 9 -34
24 -51 33 -33 16 -33 16 -33 -9 0 -14 -4 -25 -8 -25 -12 0 -98 56 -106 69 -12
19 -46 13 -46 -9z"/>
<path d="M1620 1955 c-13 -13 -26 -41 -29 -61 -5 -31 -12 -39 -40 -49 -20 -6
-38 -21 -43 -35 -10 -26 -10 -25 18 -34 16 -5 29 6 68 59 26 36 61 72 77 81
44 22 35 64 -15 64 -7 0 -23 -11 -36 -25z"/>
<path d="M1465 1758 c-30 -23 -31 -64 -3 -62 10 1 15 -2 12 -7 -3 -5 -11 -8
-18 -7 -13 3 -22 -15 -9 -19 5 -2 22 11 38 29 17 18 22 26 13 19 -11 -8 -18
-9 -18 -3 0 12 19 27 34 27 5 0 10 7 12 17 3 25 -33 29 -61 6z"/>
<path d="M1340 1719 c-14 -23 -41 -52 -61 -65 -27 -16 -41 -36 -53 -70 -9 -26
-14 -49 -11 -52 11 -11 36 10 52 43 12 24 23 35 39 35 12 0 32 8 43 18 19 15
22 26 19 75 l-3 58 -25 -42z"/>
<path d="M1701 1674 c0 -11 3 -14 6 -6 3 7 2 16 -1 19 -3 4 -6 -2 -5 -13z"/>
<path d="M2386 1665 c4 -8 12 -15 20 -15 19 0 18 16 -2 24 -22 9 -24 8 -18 -9z"/>
<path d="M1291 1478 c-5 -13 -5 -27 0 -32 11 -12 16 -7 24 27 9 33 -12 38 -24
5z"/>
<path d="M2723 1464 c-14 -6 11 -86 33 -105 12 -9 14 -6 14 19 0 74 -13 99
-47 86z"/>
<path d="M1355 1429 c-8 -37 -7 -38 39 -46 33 -5 36 -4 30 13 -10 26 -24 43
-45 54 -14 8 -19 5 -24 -21z"/>
<path d="M2585 1359 c-22 -4 -52 -6 -67 -3 -26 5 -28 3 -28 -29 0 -41 11 -47
82 -47 42 0 49 3 45 18 -2 9 3 29 10 45 7 15 10 26 6 26 -5 -1 -26 -5 -48 -10z"/>
<path d="M1295 1190 c-3 -5 -4 -14 0 -20 3 -5 -6 -32 -19 -59 -24 -47 -25 -52
-11 -85 9 -20 13 -36 10 -36 -3 0 2 -8 10 -17 8 -10 21 -27 29 -38 25 -33 19
3 -9 60 -30 61 -30 62 -5 116 11 24 20 54 20 67 0 23 -14 30 -25 12z"/>
<path d="M2563 1142 c-7 -4 -14 -19 -15 -32 -2 -20 2 -25 22 -27 22 -1 22 -1
3 4 -13 2 -23 8 -23 13 0 13 27 2 75 -29 22 -15 57 -34 78 -44 21 -9 40 -24
43 -32 11 -28 23 -15 34 40 7 36 16 55 26 55 17 0 18 14 4 41 -6 11 -21 19
-35 19 -20 0 -25 -5 -25 -24 0 -14 -4 -36 -10 -50 l-9 -25 -43 19 c-32 14 -45
26 -51 49 -9 35 -24 39 -43 14 -7 -10 -16 -14 -20 -10 -5 4 -2 12 6 17 8 6 11
10 5 10 -5 0 -16 -4 -22 -8z"/>
<path d="M1488 682 c-16 -9 -28 -20 -28 -23 0 -8 180 -53 186 -47 3 4 -118 88
-126 88 -3 0 -17 -8 -32 -18z"/>
<path d="M1460 530 c0 -13 41 -50 55 -50 21 0 24 12 8 36 -15 24 -63 34 -63
14z"/>
<path d="M1970 390 c20 -13 33 -13 25 0 -3 6 -14 10 -23 10 -15 0 -15 -2 -2
-10z"/>
<path d="M2133 2550 c0 -25 2 -35 4 -22 2 12 2 32 0 45 -2 12 -4 2 -4 -23z"/>
<path d="M1850 2713 c0 -5 5 -15 10 -23 8 -12 10 -11 10 8 0 12 -4 22 -10 22
-5 0 -10 -3 -10 -7z"/>
<path d="M1851 2644 c0 -11 3 -14 6 -6 3 7 2 16 -1 19 -3 4 -6 -2 -5 -13z"/>
<path d="M2147 1197 c-3 -8 -1 -20 4 -28 6 -10 9 -7 9 14 0 29 -5 35 -13 14z"/>
<path d="M2141 1141 c-10 -6 -10 -10 -1 -16 13 -8 24 -1 19 14 -3 6 -10 7 -18
2z"/>
<path d="M2250 1151 c0 -6 4 -13 10 -16 6 -3 7 1 4 9 -7 18 -14 21 -14 7z"/>
<path d="M940 992 c0 -45 45 -49 80 -8 10 13 10 16 -3 16 -8 0 -29 3 -46 6
-26 6 -31 4 -31 -14z"/>
<path d="M2773 584 c-4 -12 -8 -12 -13 -3 -6 8 -12 4 -21 -12 -11 -21 -10 -22
3 -12 8 7 17 10 21 7 3 -3 10 4 17 15 6 12 8 21 5 21 -3 0 -8 -7 -12 -16z"/>
<path d="M2450 320 l-25 -21 28 12 c15 7 27 16 27 21 0 11 -1 10 -30 -12z"/>
<path d="M2327 212 c-23 -25 -13 -32 45 -32 48 0 59 8 35 28 -26 22 -62 24
-80 4z"/>
</g>
</svg>
